<svg width="110" height="27" viewBox="0 0 110 27" fill="none" xmlns="http://www.w3.org/2000/svg">
<path d="M8.138 5.414C9.99267 5.414 11.5353 5.91667 12.766 6.922C14.014 7.92733 14.794 9.29667 15.106 11.03H11.232C11.076 10.2673 10.7207 9.66933 10.166 9.236C9.61133 8.78533 8.90933 8.56 8.06 8.56C7.08933 8.56 6.27467 8.924 5.616 9.652C4.97467 10.3627 4.654 11.4113 4.654 12.798C4.654 14.1847 4.97467 15.242 5.616 15.97C6.27467 16.6807 7.08933 17.036 8.06 17.036C8.90933 17.036 9.61133 16.8193 10.166 16.386C10.7207 15.9353 11.076 15.3287 11.232 14.566H15.106C14.794 16.2993 14.014 17.6687 12.766 18.674C11.5353 19.6793 9.99267 20.182 8.138 20.182C6.734 20.182 5.486 19.8873 4.394 19.298C3.302 18.6913 2.45267 17.8333 1.846 16.724C1.23933 15.6147 0.936 14.306 0.936 12.798C0.936 11.29 1.23933 9.98133 1.846 8.872C2.45267 7.74533 3.302 6.88733 4.394 6.298C5.486 5.70867 6.734 5.414 8.138 5.414ZM25.7709 5.388C27.4349 5.388 28.7609 5.934 29.7489 7.026C30.7369 8.118 31.2309 9.652 31.2309 11.628V20H27.5909V12.044C27.5909 10.9 27.2962 10.016 26.7069 9.392C26.1175 8.75067 25.3115 8.43 24.2889 8.43C23.2489 8.43 22.4169 8.768 21.7929 9.444C21.1689 10.12 20.8569 11.0907 20.8569 12.356V20H17.1909V0.76H20.8569V8.482C21.2382 7.51133 21.8622 6.75733 22.7289 6.22C23.6129 5.66533 24.6269 5.388 25.7709 5.388ZM39.5785 5.414C40.7918 5.414 41.8318 5.7 42.6985 6.272C43.5652 6.844 44.1805 7.61533 44.5445 8.586V5.596H48.1845V20H44.5445V16.984C44.1805 17.9547 43.5652 18.7347 42.6985 19.324C41.8318 19.896 40.7918 20.182 39.5785 20.182C38.3652 20.182 37.2732 19.8873 36.3025 19.298C35.3318 18.7087 34.5692 17.8593 34.0145 16.75C33.4772 15.6233 33.2085 14.306 33.2085 12.798C33.2085 11.29 33.4772 9.98133 34.0145 8.872C34.5692 7.74533 35.3318 6.88733 36.3025 6.298C37.2732 5.70867 38.3652 5.414 39.5785 5.414ZM40.7225 8.612C39.5785 8.612 38.6598 8.98467 37.9665 9.73C37.2732 10.4753 36.9265 11.498 36.9265 12.798C36.9265 14.098 37.2732 15.1207 37.9665 15.866C38.6598 16.594 39.5785 16.958 40.7225 16.958C41.8318 16.958 42.7418 16.5853 43.4525 15.84C44.1805 15.0773 44.5445 14.0633 44.5445 12.798C44.5445 11.5153 44.1805 10.5013 43.4525 9.756C42.7418 8.99333 41.8318 8.612 40.7225 8.612ZM58.6828 16.854V20H56.7588C55.1468 20 53.9075 19.61 53.0408 18.83C52.1915 18.05 51.7668 16.75 51.7668 14.93V8.69H49.7648V5.596H51.7668V2.034H55.4328V5.596H58.6568V8.69H55.4328V14.982C55.4328 15.6753 55.5715 16.1607 55.8488 16.438C56.1261 16.7153 56.5941 16.854 57.2528 16.854H58.6828ZM67.3008 5.7C68.8435 5.7 70.1435 6.10733 71.2008 6.922C72.2581 7.71933 72.9775 8.77667 73.3588 10.094V5.882H74.5288V20H73.3588V15.788C72.9775 17.1053 72.2581 18.1713 71.2008 18.986C70.1435 19.7833 68.8435 20.182 67.3008 20.182C65.9835 20.182 64.8135 19.896 63.7908 19.324C62.7855 18.7347 61.9968 17.894 61.4248 16.802C60.8528 15.6927 60.5668 14.4013 60.5668 12.928C60.5668 11.4547 60.8528 10.172 61.4248 9.08C61.9968 7.988 62.7855 7.156 63.7908 6.584C64.8135 5.99467 65.9835 5.7 67.3008 5.7ZM67.5608 6.74C65.7928 6.74 64.3801 7.29467 63.3228 8.404C62.2828 9.51333 61.7628 11.0213 61.7628 12.928C61.7628 14.852 62.2828 16.3687 63.3228 17.478C64.3628 18.5873 65.7755 19.142 67.5608 19.142C68.6701 19.142 69.6668 18.8907 70.5508 18.388C71.4348 17.868 72.1195 17.14 72.6048 16.204C73.1075 15.2507 73.3588 14.1587 73.3588 12.928C73.3588 11.6973 73.1075 10.614 72.6048 9.678C72.1195 8.742 71.4348 8.02267 70.5508 7.52C69.6668 7 68.6701 6.74 67.5608 6.74ZM85.3935 5.7C86.7109 5.7 87.8722 5.99467 88.8775 6.584C89.9002 7.156 90.6975 7.988 91.2695 9.08C91.8415 10.172 92.1275 11.4547 92.1275 12.928C92.1275 14.4013 91.8415 15.6927 91.2695 16.802C90.6975 17.894 89.9002 18.7347 88.8775 19.324C87.8722 19.896 86.7109 20.182 85.3935 20.182C83.8682 20.182 82.5682 19.7833 81.4935 18.986C80.4362 18.1713 79.7169 17.1053 79.3355 15.788V26.656H78.1915V5.882H79.3355V10.094C79.7169 8.77667 80.4362 7.71933 81.4935 6.922C82.5682 6.10733 83.8682 5.7 85.3935 5.7ZM85.1595 6.74C84.0502 6.74 83.0535 7 82.1695 7.52C81.2855 8.02267 80.5922 8.742 80.0895 9.678C79.5869 10.614 79.3355 11.6973 79.3355 12.928C79.3355 14.1587 79.5869 15.2507 80.0895 16.204C80.5922 17.14 81.2855 17.868 82.1695 18.388C83.0535 18.8907 84.0502 19.142 85.1595 19.142C86.9275 19.142 88.3315 18.5873 89.3715 17.478C90.4289 16.3687 90.9575 14.852 90.9575 12.928C90.9575 11.0213 90.4289 9.51333 89.3715 8.404C88.3315 7.29467 86.9275 6.74 85.1595 6.74ZM102.342 5.7C103.66 5.7 104.821 5.99467 105.826 6.584C106.849 7.156 107.646 7.988 108.218 9.08C108.79 10.172 109.076 11.4547 109.076 12.928C109.076 14.4013 108.79 15.6927 108.218 16.802C107.646 17.894 106.849 18.7347 105.826 19.324C104.821 19.896 103.66 20.182 102.342 20.182C100.817 20.182 99.517 19.7833 98.4423 18.986C97.385 18.1713 96.6656 17.1053 96.2843 15.788V26.656H95.1403V5.882H96.2843V10.094C96.6656 8.77667 97.385 7.71933 98.4423 6.922C99.517 6.10733 100.817 5.7 102.342 5.7ZM102.108 6.74C100.999 6.74 100.002 7 99.1183 7.52C98.2343 8.02267 97.541 8.742 97.0383 9.678C96.5356 10.614 96.2843 11.6973 96.2843 12.928C96.2843 14.1587 96.5356 15.2507 97.0383 16.204C97.541 17.14 98.2343 17.868 99.1183 18.388C100.002 18.8907 100.999 19.142 102.108 19.142C103.876 19.142 105.28 18.5873 106.32 17.478C107.378 16.3687 107.906 14.852 107.906 12.928C107.906 11.0213 107.378 9.51333 106.32 8.404C105.28 7.29467 103.876 6.74 102.108 6.74Z" fill="#1E71FF"/>
</svg>
