<svg width="109" height="27" viewBox="0 0 109 27" fill="none" xmlns="http://www.w3.org/2000/svg">
<path d="M0.858 12.798C0.858 11.3073 1.16133 10.0073 1.768 8.898C2.37467 7.77133 3.21533 6.90467 4.29 6.298C5.36467 5.674 6.59533 5.362 7.982 5.362C9.76733 5.362 11.2407 5.81267 12.402 6.714C13.5807 7.598 14.3693 8.846 14.768 10.458H10.842C10.634 9.834 10.2787 9.34867 9.776 9.002C9.29067 8.638 8.684 8.456 7.956 8.456C6.916 8.456 6.09267 8.83733 5.486 9.6C4.87933 10.3453 4.576 11.4113 4.576 12.798C4.576 14.1673 4.87933 15.2333 5.486 15.996C6.09267 16.7413 6.916 17.114 7.956 17.114C9.42933 17.114 10.3913 16.4553 10.842 15.138H14.768C14.3693 16.698 13.5807 17.9373 12.402 18.856C11.2233 19.7747 9.75 20.234 7.982 20.234C6.59533 20.234 5.36467 19.9307 4.29 19.324C3.21533 18.7 2.37467 17.8333 1.768 16.724C1.16133 15.5973 0.858 14.2887 0.858 12.798ZM25.0266 5.388C26.1186 5.388 27.0893 5.63067 27.9386 6.116C28.788 6.584 29.4466 7.286 29.9146 8.222C30.4 9.14067 30.6426 10.25 30.6426 11.55V20H27.0026V12.044C27.0026 10.9 26.7166 10.0247 26.1446 9.418C25.5726 8.794 24.7926 8.482 23.8046 8.482C22.7993 8.482 22.002 8.794 21.4126 9.418C20.8406 10.0247 20.5546 10.9 20.5546 12.044V20H16.9146V0.76H20.5546V7.39C21.0226 6.766 21.6466 6.28067 22.4266 5.934C23.2066 5.57 24.0733 5.388 25.0266 5.388ZM32.6481 12.746C32.6481 11.29 32.9341 9.99867 33.5061 8.872C34.0954 7.74533 34.8841 6.87867 35.8721 6.272C36.8774 5.66533 37.9954 5.362 39.2261 5.362C40.3007 5.362 41.2367 5.57867 42.0341 6.012C42.8487 6.44533 43.4987 6.99133 43.9841 7.65V5.596H47.6501V20H43.9841V17.894C43.5161 18.57 42.8661 19.1333 42.0341 19.584C41.2194 20.0173 40.2747 20.234 39.2001 20.234C37.9867 20.234 36.8774 19.922 35.8721 19.298C34.8841 18.674 34.0954 17.7987 33.5061 16.672C32.9341 15.528 32.6481 14.2193 32.6481 12.746ZM43.9841 12.798C43.9841 11.914 43.8107 11.16 43.4641 10.536C43.1174 9.89467 42.6494 9.40933 42.0601 9.08C41.4707 8.73333 40.8381 8.56 40.1621 8.56C39.4861 8.56 38.8621 8.72467 38.2901 9.054C37.7181 9.38333 37.2501 9.86867 36.8861 10.51C36.5394 11.134 36.3661 11.8793 36.3661 12.746C36.3661 13.6127 36.5394 14.3753 36.8861 15.034C37.2501 15.6753 37.7181 16.1693 38.2901 16.516C38.8794 16.8627 39.5034 17.036 40.1621 17.036C40.8381 17.036 41.4707 16.8713 42.0601 16.542C42.6494 16.1953 43.1174 15.71 43.4641 15.086C43.8107 14.4447 43.9841 13.682 43.9841 12.798ZM54.9232 8.586V15.554C54.9232 16.0393 55.0358 16.3947 55.2612 16.62C55.5038 16.828 55.9025 16.932 56.4572 16.932H58.1472V20H55.8592C52.7912 20 51.2572 18.5093 51.2572 15.528V8.586H49.5412V5.596H51.2572V2.034H54.9232V5.596H58.1472V8.586H54.9232ZM59.8552 12.928C59.8552 11.472 60.1412 10.198 60.7132 9.106C61.3026 8.014 62.1086 7.17333 63.1312 6.584C64.1712 5.99467 65.3499 5.7 66.6672 5.7C68.1579 5.7 69.4232 6.064 70.4632 6.792C71.5032 7.52 72.2312 8.44733 72.6472 9.574V5.882H73.8172V20H72.6472V16.282C72.2312 17.426 71.4946 18.3707 70.4372 19.116C69.3972 19.844 68.1406 20.208 66.6672 20.208C65.3499 20.208 64.1712 19.9133 63.1312 19.324C62.1086 18.7173 61.3026 17.868 60.7132 16.776C60.1412 15.6667 59.8552 14.384 59.8552 12.928ZM72.6472 12.928C72.6472 11.6973 72.3872 10.614 71.8672 9.678C71.3646 8.72467 70.6712 7.99667 69.7872 7.494C68.9032 6.974 67.9152 6.714 66.8232 6.714C65.6792 6.714 64.6739 6.96533 63.8072 7.468C62.9406 7.95333 62.2646 8.664 61.7792 9.6C61.2939 10.536 61.0512 11.6453 61.0512 12.928C61.0512 14.2107 61.2939 15.32 61.7792 16.256C62.2646 17.192 62.9406 17.9113 63.8072 18.414C64.6912 18.9167 65.6966 19.168 66.8232 19.168C67.9152 19.168 68.9032 18.9167 69.7872 18.414C70.6886 17.894 71.3906 17.166 71.8932 16.23C72.3959 15.2767 72.6472 14.176 72.6472 12.928ZM78.7274 9.6C79.1261 8.456 79.8454 7.52 80.8854 6.792C81.9427 6.064 83.2167 5.7 84.7074 5.7C86.0247 5.7 87.1947 5.99467 88.2174 6.584C89.2574 7.17333 90.0634 8.014 90.6354 9.106C91.2247 10.198 91.5194 11.472 91.5194 12.928C91.5194 14.384 91.2247 15.6667 90.6354 16.776C90.0634 17.868 89.2574 18.7173 88.2174 19.324C87.1947 19.9133 86.0247 20.208 84.7074 20.208C83.2341 20.208 81.9687 19.844 80.9114 19.116C79.8714 18.3707 79.1434 17.4347 78.7274 16.308V26.656H77.5574V5.882H78.7274V9.6ZM90.3234 12.928C90.3234 11.6453 90.0807 10.536 89.5954 9.6C89.1101 8.664 88.4254 7.95333 87.5414 7.468C86.6747 6.96533 85.6694 6.714 84.5254 6.714C83.4334 6.714 82.4454 6.974 81.5614 7.494C80.6774 7.99667 79.9841 8.72467 79.4814 9.678C78.9787 10.614 78.7274 11.6973 78.7274 12.928C78.7274 14.176 78.9787 15.2767 79.4814 16.23C79.9841 17.166 80.6774 17.894 81.5614 18.414C82.4454 18.9167 83.4334 19.168 84.5254 19.168C85.6694 19.168 86.6747 18.9167 87.5414 18.414C88.4254 17.9113 89.1101 17.192 89.5954 16.256C90.0807 15.32 90.3234 14.2107 90.3234 12.928ZM95.7015 9.6C96.1002 8.456 96.8195 7.52 97.8595 6.792C98.9169 6.064 100.191 5.7 101.682 5.7C102.999 5.7 104.169 5.99467 105.192 6.584C106.232 7.17333 107.038 8.014 107.61 9.106C108.199 10.198 108.494 11.472 108.494 12.928C108.494 14.384 108.199 15.6667 107.61 16.776C107.038 17.868 106.232 18.7173 105.192 19.324C104.169 19.9133 102.999 20.208 101.682 20.208C100.208 20.208 98.9429 19.844 97.8855 19.116C96.8455 18.3707 96.1175 17.4347 95.7015 16.308V26.656H94.5315V5.882H95.7015V9.6ZM107.298 12.928C107.298 11.6453 107.055 10.536 106.57 9.6C106.084 8.664 105.4 7.95333 104.516 7.468C103.649 6.96533 102.644 6.714 101.5 6.714C100.408 6.714 99.4195 6.974 98.5355 7.494C97.6515 7.99667 96.9582 8.72467 96.4555 9.678C95.9529 10.614 95.7015 11.6973 95.7015 12.928C95.7015 14.176 95.9529 15.2767 96.4555 16.23C96.9582 17.166 97.6515 17.894 98.5355 18.414C99.4195 18.9167 100.408 19.168 101.5 19.168C102.644 19.168 103.649 18.9167 104.516 18.414C105.4 17.9113 106.084 17.192 106.57 16.256C107.055 15.32 107.298 14.2107 107.298 12.928Z" fill="white"/>
</svg>
